<svg width="64" height="64" viewBox="0 0 64 64" fill="none" xmlns="http://www.w3.org/2000/svg">
<path d="M32.8892 30.7222C33.4636 30.7223 34.0142 30.9508 34.4204 31.3569C34.8267 31.7633 35.0552 32.3145 35.0552 32.8892V38.2222C35.0552 38.7968 34.8267 39.3481 34.4204 39.7544C34.0142 40.1604 33.4635 40.3891 32.8892 40.3892C32.3146 40.3892 31.7632 40.1606 31.3569 39.7544C30.9506 39.3481 30.7222 38.7968 30.7222 38.2222V32.8892C30.7222 32.3145 30.9506 31.7633 31.3569 31.3569C31.7633 30.9506 32.3145 30.7222 32.8892 30.7222Z" fill="#67757F" stroke="black"/>
<path d="M21.6587 33.9524C22.4036 33.9524 23.0584 34.3233 23.9839 34.969C24.8862 35.5986 25.9955 36.4489 27.5513 37.179C30.6839 38.6489 35.5627 39.6104 44.4849 37.8342C46.1561 37.8584 47.8134 39.3791 47.7456 41.1956V60.1379C47.8145 61.9859 46.3161 63.5001 44.4448 63.5002H21.6587C20.7621 63.5002 19.9021 63.144 19.2681 62.51C18.6341 61.876 18.2779 61.0159 18.2778 60.1194V37.3333C18.2778 36.2381 18.3426 35.4347 18.7437 34.8831C19.1139 34.3739 19.8806 33.9524 21.6587 33.9524Z" fill="#E1E8ED" stroke="black"/>
<path d="M34.7605 0.80542C34.8277 0.821867 34.9764 0.912755 35.2585 1.22632C35.5297 1.52772 35.8173 1.90563 36.2205 2.38843C38.0257 4.5468 40.252 7.83857 42.0242 11.489C43.7997 15.1464 45.0964 19.1159 45.0964 22.6433C45.0956 26.5642 43.1517 28.9931 40.698 30.4656C38.2183 31.9535 35.2207 32.4568 33.2214 32.4568C31.0178 32.4568 28.0227 31.6284 25.5876 29.9451C23.1631 28.269 21.3446 25.7853 21.3445 22.4714C21.3445 19.1366 23.1454 16.8597 25.6765 14.0007C28.193 11.1583 31.3594 7.80832 33.7546 2.40503C34.0858 1.65855 34.3398 1.21652 34.5427 0.978271C34.6411 0.862809 34.7058 0.822322 34.7341 0.809326C34.7503 0.801986 34.752 0.803365 34.7605 0.80542Z" fill="#FCAB40" stroke="black"/>
<path d="M33.2214 31.0168C25.7832 31.0168 27.0312 20.7021 33.2214 14.5137C37.3477 16.5759 43.5343 31.0168 33.2214 31.0168Z" fill="#FDCB58"/>
<path d="M24.8887 43.1665C25.2274 43.1665 25.5524 43.3012 25.792 43.5405C26.0316 43.7802 26.167 44.1059 26.167 44.4448V56.8892C26.1669 57.228 26.0316 57.5529 25.792 57.7925C25.5524 58.032 25.2275 58.1665 24.8887 58.1665C24.5499 58.1664 24.2249 58.0321 23.9854 57.7925C23.7458 57.5529 23.6114 57.228 23.6113 56.8892V44.4448C23.6113 44.1059 23.7457 43.7802 23.9854 43.5405C24.2249 43.3011 24.55 43.1666 24.8887 43.1665ZM17.7773 37.8335C18.1162 37.8335 18.442 37.9679 18.6816 38.2075C18.9211 38.4471 19.0556 38.7721 19.0557 39.1108V51.5552C19.0557 51.8941 18.9213 52.2198 18.6816 52.4595C18.442 52.6991 18.1162 52.8335 17.7773 52.8335C17.4386 52.8334 17.1135 52.699 16.874 52.4595C16.6344 52.2198 16.5 51.8941 16.5 51.5552V39.1108L16.5059 38.9849C16.5349 38.6924 16.6644 38.4172 16.874 38.2075C17.1136 37.968 17.4386 37.8336 17.7773 37.8335ZM24.8887 34.2778C25.2274 34.2778 25.5524 34.4124 25.792 34.6519C26.0315 34.8914 26.1669 35.2164 26.167 35.5552V37.3335C26.167 37.6723 26.0316 37.9972 25.792 38.2368C25.5524 38.4763 25.2275 38.6108 24.8887 38.6108C24.5499 38.6108 24.2249 38.4764 23.9854 38.2368C23.7458 37.9972 23.6114 37.6723 23.6113 37.3335V35.5552C23.6114 35.2164 23.7458 34.8914 23.9854 34.6519C24.2249 34.4123 24.5499 34.2779 24.8887 34.2778Z" fill="#CCD6DD" stroke="black"/>
</svg>
