<svg width="64" height="64" viewBox="0 0 64 64" fill="none" xmlns="http://www.w3.org/2000/svg">
<path d="M22.8496 23C23.3764 22.9953 24.0987 23.0655 25.043 23.2793L25.4609 23.3799C28.0343 24.0351 30.6949 24.4282 33.0977 24.7461C35.5323 25.0682 37.6498 25.3075 39.252 25.6553L39.3564 25.6787H39.4072C39.7632 25.7216 40.2743 25.8796 40.7676 26.0879V26.0869C40.9166 26.1511 41.0363 26.2061 41.1387 26.2598L41.2607 26.3232C41.8922 26.6651 42.1195 26.9884 42.2227 27.2119C42.2909 27.36 42.3236 27.4884 42.3467 27.6377L42.415 28.1875C42.5198 28.9632 42.4105 29.5142 42.3408 30.3154C42.2711 31.1175 42.2752 32.0103 42.7832 33.0996C42.8059 33.1485 42.8282 33.2007 42.8525 33.2549C42.766 33.1095 42.6742 32.9797 42.5762 32.8652C42.4138 32.6758 42.254 32.5443 42.125 32.4521C42.0638 32.4084 42.0095 32.3735 41.9814 32.3555C41.9409 32.3294 41.9583 32.3385 41.9893 32.3623C41.6431 32.0864 41.224 31.8714 40.751 31.834C40.2475 31.7943 39.7847 31.9656 39.4238 32.2852C38.7683 32.8658 38.5275 33.8446 38.499 34.8262V34.8271C38.4538 36.464 38.9211 38.231 39.292 39.6553C39.4848 40.3958 39.6518 41.0405 39.749 41.5986C39.8497 42.1761 39.8481 42.5252 39.7998 42.7148C39.7403 42.9446 39.6657 43.0172 39.6475 43.0332C39.6272 43.0509 39.5968 43.0681 39.5352 43.0771C39.4662 43.0872 39.3848 43.082 39.3096 43.0684C39.2752 43.0621 39.2486 43.0558 39.2344 43.0518L39.2373 43.0527L39.2383 43.0537L38.0908 42.6318L37.9072 43.8428C37.8677 44.1029 37.8933 44.3957 37.918 44.6113C37.9458 44.8545 37.9907 45.1381 38.0371 45.4268C38.1328 46.0217 38.2443 46.6885 38.3018 47.3604C38.3598 48.0391 38.3557 48.6524 38.2529 49.1357C38.1507 49.6165 37.9789 49.8462 37.8027 49.958H37.8018C37.801 49.9583 37.7648 49.9788 37.7021 49.9912C37.6424 50.003 37.5838 50.0028 37.5322 49.9912C37.4862 49.9808 37.4299 49.9581 37.3643 49.8994C37.296 49.8383 37.193 49.7165 37.0928 49.4775V49.4766C37.0389 49.3484 36.9806 49.0557 36.9678 48.5195C36.9556 48.0092 36.9854 47.3797 37.0371 46.6426C37.1383 45.2009 37.326 43.3527 37.3848 41.499C37.4361 39.8728 37.2965 37.9042 37.1484 36.3672C37.0739 35.5936 36.9965 34.9191 36.9375 34.4375C36.908 34.1966 36.8829 34.0034 36.8652 33.8701C36.8565 33.8038 36.8495 33.7521 36.8447 33.7168C36.8423 33.6991 36.8402 33.6851 36.8389 33.6758C36.8382 33.6711 36.8373 33.6675 36.8369 33.665V33.6611L36.834 33.6387L36.8301 33.6172L36.7949 33.4785C36.6983 33.1699 36.497 32.9733 36.3613 32.8672C36.2142 32.7521 36.0518 32.671 35.9531 32.623C35.7098 32.5048 35.5297 32.4335 35.2793 32.2852C34.838 32.0237 34.2236 31.5373 33.6533 30.416L33.6523 30.4141C33.1807 29.4922 32.1979 29.5347 31.7666 29.6035C31.2613 29.6843 30.7537 29.8982 30.4473 30.0352L30.4434 30.0371C30.1244 30.1811 29.7563 30.3843 29.5244 30.501C29.3205 30.6036 29.1474 30.6807 28.9863 30.7334L28.8291 30.7773C28.1592 30.9331 27.3917 30.585 27.0654 30.0479L27.0059 29.9375C26.9026 29.7163 26.8456 29.4701 26.751 29.0781C26.6659 28.7259 26.5472 28.2435 26.2861 27.7861L26.2842 27.7842L26.166 27.5947C25.5832 26.7365 24.5702 26.201 23.5273 26.1895L23.3252 26.1943C23.1757 26.2004 22.5975 26.2239 22.208 26.7012L22.2031 26.707L22.1982 26.7139C21.8989 27.0929 21.8948 27.5411 21.8906 27.627V27.6318C21.7769 30.2034 22.014 32.6759 22.2607 35.0781C22.5094 37.4993 22.7669 39.8428 22.7305 42.2637C22.726 42.5201 22.6858 42.8087 22.5898 43.0498C22.4986 43.279 22.3787 43.415 22.2305 43.4922C22.2238 43.495 22.1975 43.5051 22.1416 43.5068C22.0771 43.5089 21.9931 43.4997 21.8975 43.4746H21.8955C21.0976 43.2672 20.4457 42.3565 20.3867 41.3105V41.3057L20.3799 41.1064C20.3748 40.1076 20.7754 39.0786 21.3184 37.9326L21.7793 36.959L20.7744 36.5713C20.2015 36.3506 19.8774 35.6423 20.0449 35.1221V35.1211C20.0892 34.9833 20.1674 34.8314 20.2939 34.625C20.3961 34.4584 20.5964 34.1562 20.7363 33.9062L20.7354 33.9053C21.9143 31.8227 21.6335 29.3439 21.4385 27.4229C21.3378 26.4311 21.2688 25.3675 21.3613 24.4961C21.4075 24.0615 21.489 23.7281 21.5938 23.4951C21.6684 23.3291 21.7393 23.2454 21.793 23.2021L21.8916 23.1475C21.9479 23.1157 22.2254 23.0056 22.8496 23ZM43.2207 34.1318C43.3396 34.4345 43.4609 34.7591 43.5703 35.0859C43.8339 35.8732 43.9935 36.5482 43.999 36.9365C43.998 37.5551 43.8035 38.007 43.6006 38.2812C43.5943 38.2403 43.5869 38.1969 43.5811 38.1514C43.5413 37.8403 43.5206 37.4791 43.5049 37.0762C43.4754 36.3199 43.4674 35.3507 43.3291 34.5918L43.3281 34.5898L43.2676 34.3047C43.2532 34.2454 43.2366 34.1881 43.2207 34.1318ZM42.0127 32.3818L42.0049 32.375L42 32.3711C42.0041 32.3744 42.0084 32.3783 42.0127 32.3818Z" fill="#EEEEEE" stroke="#A61F55" stroke-width="2"/>
<path d="M33.4844 2.42505C33.2295 4.18327 33.5872 7.08964 36.7109 10.9026L37.0723 11.3323C38.8229 13.3692 39.4314 15.2659 39.2041 16.8215C38.9797 18.3568 37.9109 19.7582 35.8682 20.762C33.457 21.9463 30.3098 22.0129 27.7764 20.9583C26.3897 20.3811 25.0148 19.3405 24.2891 17.8118C23.5762 16.3098 23.4305 14.2111 24.7246 11.3704V11.3694C27.0695 6.21527 31.251 3.54379 33.4844 2.42505Z" fill="url(#paint0_radial_150_5845)" stroke="#A61F55" stroke-width="1.5"/>
<path d="M42 30V60.3174C42 60.3903 41.9567 60.6179 41.5146 60.9678C41.0833 61.3091 40.3974 61.6602 39.4609 61.9736C37.5976 62.5972 34.9595 63 32 63C29.0405 63 26.4024 62.5972 24.5391 61.9736C23.6026 61.6602 22.9167 61.3091 22.4854 60.9678C22.0433 60.6179 22 60.3903 22 60.3174V30H42Z" fill="url(#paint1_linear_150_5845)" stroke="#A61F55" stroke-width="2"/>
<path d="M45.455 13.315C45.455 20.095 40.875 26.295 31.865 26.105C20.78 25.865 18.345 19.725 18.345 12.95C18.345 6.175 23.17 0 33.025 0C41.955 0 45.455 6.535 45.455 13.315Z" fill="url(#paint2_radial_150_5845)"/>
<path d="M40.8496 29.5V59.3203C40.8495 59.6201 40.6911 59.9639 40.2764 60.335C39.8614 60.7061 39.2318 61.064 38.4121 61.374C36.7762 61.9925 34.4826 62.3848 31.9248 62.3848C29.3669 62.3847 27.0733 61.9926 25.4375 61.374C24.6178 61.064 23.9892 60.7061 23.5742 60.335C23.1592 59.9638 23.0001 59.6201 23 59.3203V29.5H40.8496Z" fill="url(#paint3_linear_150_5845)" stroke="black"/>
<path d="M42.09 33.0001C41.39 31.4501 42.06 30.5201 41.845 28.8801C41.765 28.2751 41.81 27.2901 40.295 26.4951H40.29C40.17 26.4301 40.04 26.3701 39.905 26.3101C39.435 26.1051 38.885 25.9201 38.45 25.8751H38.445C35.59 25.2351 30.915 24.9951 26.58 23.8551C24.485 23.3051 23.32 23.4701 22.865 23.7351H22.86C21.765 24.3051 21.865 26.6301 22.04 28.4101C22.215 30.1901 22.4 32.0951 21.54 33.6601C21.315 34.0751 21.015 34.4551 20.875 34.9051C20.585 35.8351 21.11 36.9401 22.015 37.3001C21.515 38.3901 21.06 39.5451 21.13 40.7401C21.195 41.9351 21.92 43.1701 23.075 43.4801C23.37 43.5601 23.7 43.5701 23.97 43.4301C24.7 43.0451 24.865 42.1451 24.875 41.5551C24.94 37.1151 23.96 32.9801 24.15 28.5451C24.155 28.4401 24.165 28.3251 24.23 28.2401C24.305 28.1451 24.44 28.1201 24.56 28.1151C25.27 28.0701 25.985 28.4651 26.33 29.0851C26.645 29.6551 26.65 30.3451 26.92 30.9401C27.345 31.8701 28.475 32.4151 29.47 32.1751C30.025 32.0401 30.505 31.7001 31.02 31.4601C31.54 31.2201 32.41 30.8751 32.665 31.3901C33.805 33.7051 35.255 33.6101 35.325 34.0001C35.325 34.0001 35.875 38.0501 35.79 40.8301C35.69 44.0901 35.155 47.2051 35.605 48.3101C36.115 49.5651 37.095 49.3951 37.475 49.1451C39.16 48.0401 37.835 43.8951 37.955 43.0801C37.955 43.0801 39.22 43.5601 39.57 42.1651C39.93 40.7201 38.405 37.5551 38.475 34.9401C38.52 33.3401 39.245 32.7201 40.09 33.4201C40.2 33.5151 40.725 33.7151 40.93 34.8651C41.14 36.0551 40.955 37.9301 41.335 38.8101C41.715 39.6901 43.22 38.7001 43.22 36.7901C43.21 35.7951 42.5 33.9101 42.09 33.0001Z" fill="#EEEEEE"/>
<path d="M42.09 33.0001C41.39 31.4501 42.06 30.5201 41.845 28.8801C41.765 28.2751 41.81 27.2901 40.295 26.4951H40.29C40.17 26.4301 40.04 26.3701 39.905 26.3101C39.435 26.1051 38.885 25.9201 38.45 25.8751H38.445C35.59 25.2351 30.915 24.9951 26.58 23.8551C24.485 23.3051 23.32 23.4701 22.865 23.7351H22.86C21.765 24.3051 21.865 26.6301 22.04 28.4101C22.215 30.1901 22.4 32.0951 21.54 33.6601C21.315 34.0751 21.015 34.4551 20.875 34.9051C20.585 35.8351 21.11 36.9401 22.015 37.3001C21.515 38.3901 21.06 39.5451 21.13 40.7401C21.195 41.9351 21.92 43.1701 23.075 43.4801C23.37 43.5601 23.7 43.5701 23.97 43.4301C24.7 43.0451 24.865 42.1451 24.875 41.5551C24.94 37.1151 23.96 32.9801 24.15 28.5451C24.155 28.4401 24.165 28.3251 24.23 28.2401C24.305 28.1451 24.44 28.1201 24.56 28.1151C25.27 28.0701 25.985 28.4651 26.33 29.0851C26.645 29.6551 26.65 30.3451 26.92 30.9401C27.345 31.8701 28.475 32.4151 29.47 32.1751C30.025 32.0401 30.505 31.7001 31.02 31.4601C31.54 31.2201 32.41 30.8751 32.665 31.3901C33.805 33.7051 35.255 33.6101 35.325 34.0001C35.325 34.0001 35.875 38.0501 35.79 40.8301C35.69 44.0901 35.155 47.2051 35.605 48.3101C36.115 49.5651 37.095 49.3951 37.475 49.1451C39.16 48.0401 37.835 43.8951 37.955 43.0801C37.955 43.0801 39.22 43.5601 39.57 42.1651C39.93 40.7201 38.405 37.5551 38.475 34.9401C38.52 33.3401 39.245 32.7201 40.09 33.4201C40.2 33.5151 40.725 33.7151 40.93 34.8651C41.14 36.0551 40.955 37.9301 41.335 38.8101C41.715 39.6901 43.22 38.7001 43.22 36.7901C43.21 35.7951 42.5 33.9101 42.09 33.0001Z" fill="#EEEEEE"/>
<path d="M42.09 33.0001C41.39 31.4501 42.06 30.5201 41.845 28.8801C41.765 28.2751 41.81 27.2901 40.295 26.4951H40.29C40.17 26.4301 40.04 26.3701 39.905 26.3101C39.435 26.1051 38.885 25.9201 38.45 25.8751H38.445C35.59 25.2351 30.915 24.9951 26.58 23.8551C24.485 23.3051 23.32 23.4701 22.865 23.7351H22.86C21.765 24.3051 21.865 26.6301 22.04 28.4101C22.215 30.1901 22.4 32.0951 21.54 33.6601C21.315 34.0751 21.015 34.4551 20.875 34.9051C20.585 35.8351 21.11 36.9401 22.015 37.3001C21.515 38.3901 21.06 39.5451 21.13 40.7401C21.195 41.9351 21.92 43.1701 23.075 43.4801C23.37 43.5601 23.7 43.5701 23.97 43.4301C24.7 43.0451 24.865 42.1451 24.875 41.5551C24.94 37.1151 23.96 32.9801 24.15 28.5451C24.155 28.4401 24.165 28.3251 24.23 28.2401C24.305 28.1451 24.44 28.1201 24.56 28.1151C25.27 28.0701 25.985 28.4651 26.33 29.0851C26.645 29.6551 26.65 30.3451 26.92 30.9401C27.345 31.8701 28.475 32.4151 29.47 32.1751C30.025 32.0401 30.505 31.7001 31.02 31.4601C31.54 31.2201 32.41 30.8751 32.665 31.3901C33.805 33.7051 35.255 33.6101 35.325 34.0001C35.325 34.0001 35.875 38.0501 35.79 40.8301C35.69 44.0901 35.155 47.2051 35.605 48.3101C36.115 49.5651 37.095 49.3951 37.475 49.1451C39.16 48.0401 37.835 43.8951 37.955 43.0801C37.955 43.0801 39.22 43.5601 39.57 42.1651C39.93 40.7201 38.405 37.5551 38.475 34.9401C38.52 33.3401 39.245 32.7201 40.09 33.4201C40.2 33.5151 40.725 33.7151 40.93 34.8651C41.14 36.0551 40.955 37.9301 41.335 38.8101C41.715 39.6901 43.22 38.7001 43.22 36.7901C43.21 35.7951 42.5 33.9101 42.09 33.0001Z" fill="#EEEEEE"/>
<path d="M42.09 33.0001C41.39 31.4501 42.06 30.5201 41.845 28.8801C41.765 28.2751 41.81 27.2901 40.295 26.4951H40.29C40.17 26.4301 40.04 26.3701 39.905 26.3101C39.435 26.1051 38.885 25.9201 38.45 25.8751H38.445C35.59 25.2351 30.915 24.9951 26.58 23.8551C24.485 23.3051 23.32 23.4701 22.865 23.7351H22.86C21.765 24.3051 21.865 26.6301 22.04 28.4101C22.215 30.1901 22.4 32.0951 21.54 33.6601C21.315 34.0751 21.015 34.4551 20.875 34.9051C20.585 35.8351 21.11 36.9401 22.015 37.3001C21.515 38.3901 21.06 39.5451 21.13 40.7401C21.195 41.9351 21.92 43.1701 23.075 43.4801C23.37 43.5601 23.7 43.5701 23.97 43.4301C24.7 43.0451 24.865 42.1451 24.875 41.5551C24.94 37.1151 23.96 32.9801 24.15 28.5451C24.155 28.4401 24.165 28.3251 24.23 28.2401C24.305 28.1451 24.44 28.1201 24.56 28.1151C25.27 28.0701 25.985 28.4651 26.33 29.0851C26.645 29.6551 26.65 30.3451 26.92 30.9401C27.345 31.8701 28.475 32.4151 29.47 32.1751C30.025 32.0401 30.505 31.7001 31.02 31.4601C31.54 31.2201 32.41 30.8751 32.665 31.3901C33.805 33.7051 35.255 33.6101 35.325 34.0001C35.325 34.0001 35.875 38.0501 35.79 40.8301C35.69 44.0901 35.155 47.2051 35.605 48.3101C36.115 49.5651 37.095 49.3951 37.475 49.1451C39.16 48.0401 37.835 43.8951 37.955 43.0801C37.955 43.0801 39.22 43.5601 39.57 42.1651C39.93 40.7201 38.405 37.5551 38.475 34.9401C38.52 33.3401 39.245 32.7201 40.09 33.4201C40.2 33.5151 40.725 33.7151 40.93 34.8651C41.14 36.0551 40.955 37.9301 41.335 38.8101C41.715 39.6901 43.22 38.7001 43.22 36.7901C43.21 35.7951 42.5 33.9101 42.09 33.0001Z" stroke="#050505"/>
<path d="M26.5801 23.8651C23.8201 23.1401 22.6701 23.6601 22.6401 24.0101C22.4851 25.9601 31.8701 28.2251 35.8451 28.7101C39.5851 29.1701 41.3501 28.7251 41.1451 27.4951C40.7701 25.2351 33.2701 25.6251 26.5801 23.8651Z" fill="url(#paint4_radial_150_5845)"/>
<path d="M33.6167 2.38086C33.2505 3.85054 33.1862 6.89631 36.5933 11.1777C38.1718 13.1602 38.7691 15.0671 38.5493 16.6904C38.3309 18.3029 37.2956 19.7145 35.439 20.6992C33.377 21.7925 30.7391 21.9166 28.52 21.0752L28.0815 20.8945L27.8442 20.7822C26.6595 20.1949 25.4922 19.1937 24.8511 17.7363C24.2137 16.2872 24.0755 14.338 25.0278 11.8086L25.2329 11.2949C27.3704 6.22348 31.1966 3.63369 33.1763 2.57715L33.5464 2.38574C33.572 2.37313 33.5971 2.37522 33.6167 2.38086Z" fill="url(#paint5_radial_150_5845)" stroke="black" stroke-width="0.75"/>
<path d="M31.1401 25.065C31.1401 25.065 30.4701 23.525 30.6701 21.335C30.7801 20.125 31.1801 19.18 31.3901 18.32C31.6601 17.24 31.6751 16.395 31.6751 16.395C32.0701 16.495 32.5901 17.26 32.4701 18.685C32.3801 19.75 32.0551 21.395 32.0751 21.84C32.1301 23.05 32.3651 24.25 32.7401 25.405C32.7451 25.42 32.7501 25.43 32.7501 25.445C32.8751 25.83 31.2251 25.405 31.1401 25.065Z" fill="#546E7A"/>
<path d="M30.675 21.3299C30.785 20.1199 31.185 19.1749 31.395 18.3149C31.665 17.2349 31.68 16.3899 31.68 16.3899C32.075 16.4899 32.595 17.2549 32.475 18.6799C32.385 19.7449 32.06 21.3899 32.08 21.8349C32.125 23.0449 30.475 23.5249 30.675 21.3299Z" fill="url(#paint6_linear_150_5845)"/>
<path d="M24.565 24.295C25.55 24.755 26.34 25.54 27.28 26.085C27.955 26.475 28.705 26.735 29.475 26.845C29.96 26.915 30.475 26.935 30.895 27.185C31.15 27.34 31.37 27.685 31.195 27.93C31.115 28.045 30.975 28.095 30.84 28.12C30.33 28.215 29.815 28.005 29.295 27.96C28.515 27.895 27.675 28.195 26.965 27.85C26.335 27.545 26.005 26.81 25.38 26.495C25.03 26.315 24.625 26.29 24.23 26.275C23.48 26.24 22.13 25.95 22.26 24.905C22.405 23.815 23.87 23.975 24.565 24.295ZM36.015 29.735C37.34 30.17 38.885 30.13 40.02 29.32C40.46 29.005 40.845 28.54 40.875 28C40.91 27.46 40.465 26.88 39.925 26.925C39.575 26.955 39.295 27.205 39.005 27.395C37.72 28.225 36.42 27.72 35.035 27.875C32.86 28.115 35.175 29.46 36.015 29.735Z" fill="#FFFDE7"/>
<path d="M36.6799 46.2849C36.7049 46.7449 36.7199 47.2199 36.5949 47.6649C36.5649 47.7699 36.2399 48.2649 35.8199 47.9299C35.4349 47.6249 35.4949 47.0399 35.5199 46.5499C35.5949 45.0049 35.6899 43.6849 35.9249 42.1699C36.0249 41.5199 36.3599 42.0949 36.3999 42.4949C36.4399 42.8949 36.4549 43.3749 36.4849 43.6749C36.5799 44.5399 36.6349 45.4099 36.6799 46.2849ZM22.9799 36.8799C22.8799 36.9099 22.7749 36.9299 22.6749 36.8999C22.4999 36.8549 22.3799 36.6849 22.3449 36.5099C22.3099 36.3349 22.3449 36.1549 22.3849 35.9799C22.5649 35.2699 22.9199 34.6149 23.2649 33.9649C23.7449 33.0799 24.0199 34.6649 24.0049 35.0299C23.9799 35.7399 23.7349 36.6399 22.9799 36.8799Z" fill="white"/>
<defs>
<radialGradient id="paint0_radial_150_5845" cx="0" cy="0" r="1" gradientUnits="userSpaceOnUse" gradientTransform="translate(31.3579 20.2734) scale(20.6081 15.9952)">
<stop offset="0.17" stop-color="#FF9616"/>
<stop offset="0.654" stop-color="#FFD429"/>
</radialGradient>
<linearGradient id="paint1_linear_150_5845" x1="31.9988" y1="34.1449" x2="31.9988" y2="68.4079" gradientUnits="userSpaceOnUse">
<stop stop-color="#E0E0E0"/>
<stop offset="1" stop-color="#B0BEC5"/>
</linearGradient>
<radialGradient id="paint2_radial_150_5845" cx="0" cy="0" r="1" gradientUnits="userSpaceOnUse" gradientTransform="translate(31.8993 13.0529) scale(13.5131 13.0069)">
<stop offset="0.088" stop-color="#FFE265" stop-opacity="0.7"/>
<stop offset="0.398" stop-color="#FFEC99" stop-opacity="0.448"/>
<stop offset="0.949" stop-color="white" stop-opacity="0"/>
</radialGradient>
<linearGradient id="paint3_linear_150_5845" x1="31.924" y1="33.981" x2="31.924" y2="67.1525" gradientUnits="userSpaceOnUse">
<stop stop-color="#E0E0E0"/>
<stop offset="1" stop-color="#B0BEC5"/>
</linearGradient>
<radialGradient id="paint4_radial_150_5845" cx="0" cy="0" r="1" gradientTransform="matrix(11.1393 1.97534 -0.634687 3.57846 32.1799 24.7521)" gradientUnits="userSpaceOnUse">
<stop stop-color="#FFF176"/>
<stop offset="1" stop-color="#FFF176" stop-opacity="0"/>
</radialGradient>
<radialGradient id="paint5_radial_150_5845" cx="0" cy="0" r="1" gradientUnits="userSpaceOnUse" gradientTransform="translate(31.3429 19.9248) scale(18.1836 15.2335)">
<stop offset="0.17" stop-color="#FF9616"/>
<stop offset="0.654" stop-color="#FFD429"/>
</radialGradient>
<linearGradient id="paint6_linear_150_5845" x1="31.9915" y1="17.0019" x2="30.7415" y2="26.3769" gradientUnits="userSpaceOnUse">
<stop stop-color="#FFA726"/>
<stop offset="0.598" stop-color="#FFA726" stop-opacity="0"/>
</linearGradient>
</defs>
</svg>
