<svg width="64" height="64" viewBox="0 0 64 64" fill="none" xmlns="http://www.w3.org/2000/svg">
<path d="M45.455 13.315C45.455 20.095 40.875 26.295 31.865 26.105C20.78 25.865 18.345 19.725 18.345 12.95C18.345 6.175 23.17 0 33.025 0C41.955 0 45.455 6.535 45.455 13.315Z" fill="url(#paint0_radial_150_5845)"/>
<path d="M40.8496 28.615V58.4353C40.8495 58.7351 40.6911 59.0789 40.2764 59.45C39.8614 59.8211 39.2318 60.179 38.4121 60.489C36.7762 61.1075 34.4826 61.4998 31.9248 61.4998C29.3669 61.4997 27.0733 61.1076 25.4375 60.489C24.6178 60.179 23.9892 59.8211 23.5742 59.45C23.1592 59.0787 23.0001 58.7351 23 58.4353V28.615H40.8496Z" fill="url(#paint1_linear_150_5845)" stroke="black"/>
<path d="M24.1123 23.9893C24.6679 23.9842 25.4378 24.0723 26.4531 24.3389C28.6516 24.917 30.9296 25.265 33 25.5479C35.0868 25.833 36.9357 26.0494 38.3359 26.3633L38.3896 26.375H38.4199C38.7771 26.4162 39.2612 26.5749 39.7051 26.7686V26.7676C39.8364 26.826 39.9505 26.8797 40.0518 26.9346L40.1631 26.9951C40.7632 27.3312 41.0226 27.6745 41.1514 27.9629C41.226 28.13 41.2633 28.2849 41.2881 28.4434L41.3496 28.9453C41.4479 29.6953 41.344 30.2554 41.2871 30.9316C41.2373 31.5234 41.2356 32.1454 41.5029 32.8828L41.6338 33.2061C41.8318 33.6456 42.1052 34.3271 42.3291 35.0176C42.5581 35.724 42.7155 36.3803 42.7197 36.7949C42.7185 37.6211 42.3923 38.2023 42.0879 38.4727C41.9458 38.5987 41.8433 38.628 41.8037 38.6328C41.8008 38.6277 41.7977 38.6209 41.7939 38.6123C41.7268 38.4569 41.6739 38.2293 41.6367 37.9287C41.6001 37.6329 41.582 37.2958 41.5684 36.9346C41.542 36.2364 41.5346 35.4174 41.4219 34.7783V34.7773C41.3069 34.1324 41.0942 33.7108 40.8594 33.4277C40.743 33.2875 40.6283 33.1908 40.5352 33.1221C40.4902 33.0889 40.4503 33.0622 40.4258 33.0459C40.4063 33.0329 40.4007 33.029 40.4023 33.0303C40.1421 32.8162 39.8469 32.6647 39.5283 32.6387C39.1923 32.6112 38.8865 32.7281 38.6455 32.9482C38.1989 33.3566 37.9992 34.0876 37.9756 34.9258V34.9268C37.9384 36.316 38.3231 37.8309 38.6465 39.1133C38.8117 39.7683 38.9606 40.3609 39.0479 40.8779C39.1366 41.4041 39.1484 41.7867 39.085 42.043C39.0169 42.3144 38.9156 42.4527 38.835 42.5254C38.754 42.5982 38.6601 42.6357 38.5566 42.6514C38.4488 42.6677 38.3387 42.6582 38.25 42.6416C38.2071 42.6336 38.1729 42.6245 38.1514 42.6182C38.1407 42.615 38.1333 42.6125 38.1299 42.6113L37.5508 42.3916L37.46 43.0068C37.4346 43.1793 37.4503 43.3922 37.4717 43.585C37.4945 43.791 37.532 44.0345 37.5723 44.293C37.6541 44.8186 37.7527 45.4284 37.8037 46.0449C37.855 46.6649 37.8544 47.2571 37.7539 47.7451C37.6533 48.2336 37.4672 48.5519 37.2012 48.7266L37.2002 48.7275C37.1083 48.788 36.9069 48.8525 36.7021 48.8047C36.5314 48.7648 36.2735 48.6268 36.0684 48.1221V48.1211L36.0156 47.9551C35.9687 47.7619 35.9382 47.4877 35.9297 47.1221C35.9187 46.6475 35.9454 46.0713 35.9902 45.4121C36.0788 44.1096 36.2397 42.4872 36.29 40.8457C36.3335 39.4239 36.2143 37.6911 36.0869 36.3262C36.023 35.6411 35.9569 35.0435 35.9062 34.6172C35.881 34.4042 35.8598 34.2337 35.8447 34.1162C35.8372 34.0574 35.8312 34.0114 35.8271 33.9805C35.8251 33.9651 35.8233 33.9533 35.8223 33.9453C35.8218 33.9416 35.8216 33.9386 35.8213 33.9365C35.8211 33.9355 35.8204 33.9342 35.8203 33.9336V33.9326L35.8193 33.9219L35.8174 33.9121L35.7988 33.8359C35.7475 33.6664 35.6383 33.5524 35.5518 33.4824C35.4579 33.4066 35.3486 33.3488 35.2646 33.3066C35.0738 33.2109 34.8902 33.1328 34.6572 32.9902C34.2213 32.7235 33.64 32.2385 33.1133 31.1689V31.168L33.0596 31.0732C32.9247 30.8619 32.7271 30.732 32.5127 30.6699C32.2868 30.6045 32.0542 30.6164 31.8604 30.6484C31.4736 30.7123 31.0728 30.8848 30.8105 31.0059L30.8086 31.0068C30.5407 31.1317 30.2515 31.2976 30.0293 31.4131C29.8473 31.5077 29.6801 31.5861 29.5156 31.6416L29.3516 31.6895C28.6355 31.8615 27.8103 31.4939 27.4424 30.8623L27.375 30.7324C27.2653 30.4902 27.2073 30.2251 27.1289 29.8896C27.0552 29.5743 26.9624 29.1964 26.7676 28.8438L26.7666 28.8418C26.3305 28.0582 25.4397 27.5625 24.5391 27.6152C24.4106 27.6206 24.0629 27.6456 23.8379 27.9307L23.833 27.9365C23.6606 28.162 23.6546 28.4333 23.6504 28.5215V28.5234C23.5537 30.7808 23.7548 32.9562 23.9678 35.0977C24.1816 37.2482 24.4069 39.3613 24.375 41.5469C24.3706 41.8058 24.3314 42.1153 24.2256 42.3896C24.1215 42.6596 23.9651 42.866 23.7383 42.9863C23.622 43.046 23.4353 43.0592 23.2061 42.9971H23.2041C22.3251 42.7609 21.6864 41.7703 21.6289 40.7129V40.7109L21.623 40.5127C21.6179 39.5199 22.0015 38.5296 22.4697 37.5088L22.6885 37.0303L22.2002 36.8359C21.5802 36.5893 21.1907 35.8378 21.3193 35.1836L21.3525 35.0537C21.4051 34.8849 21.4913 34.7167 21.6055 34.5244C21.7076 34.3525 21.8607 34.1156 21.9775 33.9004L21.9785 33.9014C22.9265 32.1763 22.7085 30.1042 22.5371 28.3613C22.45 27.4749 22.3862 26.4913 22.4707 25.6699C22.5129 25.2596 22.5906 24.9161 22.7041 24.6553C22.8052 24.423 22.9248 24.2853 23.0498 24.2061L23.1162 24.167C23.2383 24.0959 23.5455 23.9945 24.1123 23.9893Z" fill="#EEEEEE" stroke="black"/>
<path d="M26.5801 23.8651C23.8201 23.1401 22.6701 23.6601 22.6401 24.0101C22.4851 25.9601 31.8701 28.2251 35.8451 28.7101C39.5851 29.1701 41.3501 28.7251 41.1451 27.4951C40.7701 25.2351 33.2701 25.6251 26.5801 23.8651Z" fill="url(#paint2_radial_150_5845)"/>
<path d="M33.1538 2.6582C32.8926 4.2574 33.0022 7.27745 35.769 11.4277C37.1088 13.4363 37.6182 15.3719 37.4312 17.0215C37.2453 18.6591 36.3687 20.0673 34.8276 21.043C33.0089 22.194 30.6516 22.2562 28.7466 21.2344C27.7052 20.6759 26.6277 19.6469 26.0493 18.0771C25.4724 16.5113 25.3747 14.3595 26.3765 11.5264C28.2103 6.33303 31.4949 3.70834 33.1538 2.6582Z" fill="url(#paint3_radial_150_5845)" stroke="black"/>
<path d="M31.1401 25.065C31.1401 25.065 30.4701 23.525 30.6701 21.335C30.7801 20.125 31.1801 19.18 31.3901 18.32C31.6601 17.24 31.6751 16.395 31.6751 16.395C32.0701 16.495 32.5901 17.26 32.4701 18.685C32.3801 19.75 32.0551 21.395 32.0751 21.84C32.1301 23.05 32.3651 24.25 32.7401 25.405C32.7451 25.42 32.7501 25.43 32.7501 25.445C32.8751 25.83 31.2251 25.405 31.1401 25.065Z" fill="#546E7A"/>
<path d="M30.675 21.3299C30.785 20.1199 31.185 19.1749 31.395 18.3149C31.665 17.2349 31.68 16.3899 31.68 16.3899C32.075 16.4899 32.595 17.2549 32.475 18.6799C32.385 19.7449 32.06 21.3899 32.08 21.8349C32.125 23.0449 30.475 23.5249 30.675 21.3299Z" fill="url(#paint4_linear_150_5845)"/>
<path d="M24.565 24.295C25.55 24.755 26.34 25.54 27.28 26.085C27.955 26.475 28.705 26.735 29.475 26.845C29.96 26.915 30.475 26.935 30.895 27.185C31.15 27.34 31.37 27.685 31.195 27.93C31.115 28.045 30.975 28.095 30.84 28.12C30.33 28.215 29.815 28.005 29.295 27.96C28.515 27.895 27.675 28.195 26.965 27.85C26.335 27.545 26.005 26.81 25.38 26.495C25.03 26.315 24.625 26.29 24.23 26.275C23.48 26.24 22.13 25.95 22.26 24.905C22.405 23.815 23.87 23.975 24.565 24.295ZM36.015 29.735C37.34 30.17 38.885 30.13 40.02 29.32C40.46 29.005 40.845 28.54 40.875 28C40.91 27.46 40.465 26.88 39.925 26.925C39.575 26.955 39.295 27.205 39.005 27.395C37.72 28.225 36.42 27.72 35.035 27.875C32.86 28.115 35.175 29.46 36.015 29.735Z" fill="#FFFDE7"/>
<path d="M36.6799 46.2849C36.7049 46.7449 36.7199 47.2199 36.5949 47.6649C36.5649 47.7699 36.2399 48.2649 35.8199 47.9299C35.4349 47.6249 35.4949 47.0399 35.5199 46.5499C35.5949 45.0049 35.6899 43.6849 35.9249 42.1699C36.0249 41.5199 36.3599 42.0949 36.3999 42.4949C36.4399 42.8949 36.4549 43.3749 36.4849 43.6749C36.5799 44.5399 36.6349 45.4099 36.6799 46.2849ZM22.9799 36.8799C22.8799 36.9099 22.7749 36.9299 22.6749 36.8999C22.4999 36.8549 22.3799 36.6849 22.3449 36.5099C22.3099 36.3349 22.3449 36.1549 22.3849 35.9799C22.5649 35.2699 22.9199 34.6149 23.2649 33.9649C23.7449 33.0799 24.0199 34.6649 24.0049 35.0299C23.9799 35.7399 23.7349 36.6399 22.9799 36.8799Z" fill="white"/>
<defs>
<radialGradient id="paint0_radial_150_5845" cx="0" cy="0" r="1" gradientUnits="userSpaceOnUse" gradientTransform="translate(31.8993 13.0529) scale(13.5131 13.0069)">
<stop offset="0.088" stop-color="#FFE265" stop-opacity="0.7"/>
<stop offset="0.398" stop-color="#FFEC99" stop-opacity="0.448"/>
<stop offset="0.949" stop-color="white" stop-opacity="0"/>
</radialGradient>
<linearGradient id="paint1_linear_150_5845" x1="31.924" y1="33.096" x2="31.924" y2="66.2675" gradientUnits="userSpaceOnUse">
<stop stop-color="#E0E0E0"/>
<stop offset="1" stop-color="#B0BEC5"/>
</linearGradient>
<radialGradient id="paint2_radial_150_5845" cx="0" cy="0" r="1" gradientUnits="userSpaceOnUse" gradientTransform="translate(32.1799 24.7521) rotate(10.0558) scale(11.3131 3.63431)">
<stop stop-color="#FFF176"/>
<stop offset="1" stop-color="#FFF176" stop-opacity="0"/>
</radialGradient>
<radialGradient id="paint3_radial_150_5845" cx="0" cy="0" r="1" gradientUnits="userSpaceOnUse" gradientTransform="translate(31.4356 20.334) scale(15.578)">
<stop offset="0.17" stop-color="#FF9616"/>
<stop offset="0.654" stop-color="#FFD429"/>
</radialGradient>
<linearGradient id="paint4_linear_150_5845" x1="31.9915" y1="17.0019" x2="30.7415" y2="26.3769" gradientUnits="userSpaceOnUse">
<stop stop-color="#FFA726"/>
<stop offset="0.598" stop-color="#FFA726" stop-opacity="0"/>
</linearGradient>
</defs>
</svg>
