<svg width="64" height="64" viewBox="0 0 64 64" fill="none" xmlns="http://www.w3.org/2000/svg">
<path d="M25.333 12.833C18.4171 12.8331 12.8331 18.4171 12.833 25.333C12.833 32.2491 18.417 37.8329 25.333 37.833C32.2492 37.833 37.833 32.2492 37.833 25.333C37.8329 18.417 32.2491 12.833 25.333 12.833ZM37.833 39.0244L37.6934 38.8799L36.9736 38.1328L36.6455 37.793L36.2871 38.1006C34.407 39.7189 32.1923 40.9018 29.8018 41.5645C27.4111 42.227 24.9031 42.3532 22.458 41.9336H22.457C15.2615 40.7171 9.50993 34.7061 8.62988 27.46L8.62891 27.457C8.30644 24.9078 8.57224 22.3188 9.4043 19.8877C10.2364 17.4565 11.6136 15.2477 13.4307 13.4307C15.2477 11.6136 17.4565 10.2364 19.8877 9.4043C22.3188 8.57224 24.9078 8.30644 27.457 8.62891L27.46 8.62988C34.7061 9.50993 40.7171 15.2615 41.9336 22.457V22.458C42.3532 24.9031 42.227 27.4111 41.5645 29.8018C40.9018 32.1923 39.7189 34.407 38.1006 36.2871L37.793 36.6455L38.1328 36.9736L38.8799 37.6934L39.0244 37.833H41.125L52.2852 49.0459L52.2861 49.0469C53.1842 49.9449 53.1842 51.4154 52.2861 52.3135C51.3882 53.2111 49.9185 53.211 49.0205 52.3135L37.833 41.126V39.0244Z" fill="black" stroke="#A42BBC"/>
</svg>
